<svg xmlns="http://www.w3.org/2000/svg" viewBox="0 0 48 48" width="48px" height="48px">
    <path
        d="M 1.0039062 13 A 1.0001 1.0001 0 0 0 0 14.039062 L 0.0390625 15.019531 A 1.0001 1.0001 0 0 0 0.98046875 15.978516 C 0.98046875 15.978516 2.407958 16.082971 3.4648438 16.490234 C 4.4410491 16.866296 4.8774008 17.761943 5.3007812 18.683594 C 5.6301996 19.401909 11.606713 34.3663 11.792969 34.912109 C 12.633639 37.368025 14.771402 38.970703 17.300781 38.970703 L 30.550781 38.970703 C 32.593627 38.970703 34.851933 37.705451 36.15625 35.027344 C 36.35959 34.610214 36.739436 33.645995 37.337891 32.146484 C 37.936346 30.646974 38.693873 28.728741 39.453125 26.806641 C 40.212377 24.88454 40.97293 22.959906 41.574219 21.447266 C 42.175508 19.934625 42.652351 18.763384 42.726562 18.601562 C 43.136856 17.706291 43.627968 16.780409 44.609375 16.402344 C 45.643634 16.004615 47.013672 15.960937 47.013672 15.960938 A 1.0001 1.0001 0 0 0 48 14.960938 L 48 14.019531 A 1.0001 1.0001 0 0 0 46.998047 13.019531 L 34.542969 13.037109 A 1.0001 1.0001 0 0 0 34.505859 13.039062 C 34.505859 13.039062 30.381428 13.316895 28.820312 17.509766 C 28.201988 19.170738 25.715616 25.612349 23.998047 30.033203 C 22.32712 25.679116 19.854683 19.22089 19.171875 17.492188 C 17.516444 13.301808 13.505859 13.039063 13.505859 13.039062 A 1.0001 1.0001 0 0 0 13.478516 13.037109 L 1.0039062 13 z M 4.6875 15.011719 L 13.445312 15.037109 C 13.445312 15.037109 16.027931 14.97494 17.3125 18.226562 C 18.077967 20.164537 21.336732 28.686983 22.876953 32.693359 C 22.301749 34.557614 20.143396 36.417854 18.138672 36.970703 L 17.300781 36.970703 C 15.560161 36.970703 14.294877 36.045709 13.685547 34.265625 C 13.181802 32.789396 7.7957691 19.329294 7.1171875 17.849609 C 6.7466498 17.042991 6.0203858 15.794907 4.6875 15.011719 z M 43.246094 15.025391 C 42.012742 15.812976 41.273555 16.970368 40.908203 17.767578 C 40.730414 18.155257 40.319601 19.190578 39.716797 20.707031 C 39.113992 22.223484 38.352873 24.150491 37.59375 26.072266 C 36.834627 27.99404 36.076857 29.911917 35.480469 31.40625 C 34.88408 32.900583 34.389535 34.088521 34.359375 34.150391 C 33.335692 36.252283 31.787936 36.970703 30.550781 36.970703 L 29.898438 36.970703 C 27.869146 36.411063 25.686398 34.511831 25.144531 32.625 C 26.775255 28.455858 29.961512 20.172955 30.693359 18.207031 C 31.882245 15.013902 34.582031 15.037109 34.582031 15.037109 L 43.246094 15.025391 z M 24.019531 34.958984 C 24.483704 35.711041 25.081601 36.387763 25.761719 36.970703 L 22.279297 36.970703 C 22.958855 36.388193 23.55588 35.710467 24.019531 34.958984 z" />
</svg>